<svg width="187" height="55" viewBox="0 0 187 55" fill="none" xmlns="http://www.w3.org/2000/svg">
<g filter="url(#filter0_d_302_29671)">
<path d="M4 10C4 4.47715 8.47715 0 14 0H173C178.523 0 183 4.47715 183 10V37C183 42.5228 178.523 47 173 47H14C8.47716 47 4 42.5228 4 37V10Z" fill="#E31D1D"/>
<path d="M4.5 10C4.5 4.75329 8.75329 0.5 14 0.5H173C178.247 0.5 182.5 4.7533 182.5 10V37C182.5 42.2467 178.247 46.5 173 46.5H14C8.7533 46.5 4.5 42.2467 4.5 37V10Z" stroke="white" stroke-opacity="0.15"/>
</g>
<defs>
<filter id="filter0_d_302_29671" x="0" y="0" width="187" height="55" filterUnits="userSpaceOnUse" color-interpolation-filters="sRGB">
<feFlood flood-opacity="0" result="BackgroundImageFix"/>
<feColorMatrix in="SourceAlpha" type="matrix" values="0 0 0 0 0 0 0 0 0 0 0 0 0 0 0 0 0 0 127 0" result="hardAlpha"/>
<feOffset dy="4"/>
<feGaussianBlur stdDeviation="2"/>
<feComposite in2="hardAlpha" operator="out"/>
<feColorMatrix type="matrix" values="0 0 0 0 0 0 0 0 0 0 0 0 0 0 0 0 0 0 0.25 0"/>
<feBlend mode="normal" in2="BackgroundImageFix" result="effect1_dropShadow_302_29671"/>
<feBlend mode="normal" in="SourceGraphic" in2="effect1_dropShadow_302_29671" result="shape"/>
</filter>
</defs>
</svg>
