<svg width="34" height="27" viewBox="0 0 34 27" fill="none" xmlns="http://www.w3.org/2000/svg">
<path d="M2.55 27C1.87 27 1.275 26.7469 0.765 26.2406C0.255 25.7344 0 25.1438 0 24.4688V2.53125C0 1.85625 0.255 1.26562 0.765 0.759375C1.275 0.253125 1.87 0 2.55 0H31.45C32.13 0 32.725 0.253125 33.235 0.759375C33.745 1.26562 34 1.85625 34 2.53125V24.4688C34 25.1438 33.745 25.7344 33.235 26.2406C32.725 26.7469 32.13 27 31.45 27H2.55ZM31.45 4.85156L17.68 13.7953C17.5667 13.8516 17.4604 13.9008 17.3612 13.943C17.2621 13.9852 17.1417 14.0063 17 14.0063C16.8583 14.0063 16.7379 13.9852 16.6388 13.943C16.5396 13.9008 16.4333 13.8516 16.32 13.7953L2.55 4.85156V24.4688H31.45V4.85156ZM17 11.7281L31.28 2.53125H2.7625L17 11.7281ZM2.55 5.14687V3.48819V3.51907V2.53125V3.50156V3.46309V5.14687Z" fill="#484747"/>
</svg>
