<svg width="38" height="32" viewBox="0 0 38 32" fill="none" xmlns="http://www.w3.org/2000/svg">
<path d="M8.70825 29.3335C8.05513 29.3335 7.49601 29.1377 7.03091 28.746C6.5658 28.3543 6.33325 27.8835 6.33325 27.3335V12.8668C6.33325 12.3168 6.5658 11.846 7.03091 11.4543C7.49601 11.0627 8.05513 10.8668 8.70825 10.8668H11.4791V7.66683C11.4791 5.91461 12.2128 4.421 13.6802 3.186C15.1475 1.951 16.9222 1.3335 19.0041 1.3335C21.086 1.3335 22.8593 1.951 24.3239 3.186C25.7885 4.421 26.5208 5.91461 26.5208 7.66683V10.8668H29.2916C29.9447 10.8668 30.5038 11.0627 30.9689 11.4543C31.434 11.846 31.6666 12.3168 31.6666 12.8668V27.3335C31.6666 27.8835 31.434 28.3543 30.9689 28.746C30.5038 29.1377 29.9447 29.3335 29.2916 29.3335H8.70825ZM8.70825 27.3335H29.2916V12.8668H8.70825V27.3335ZM19.0066 22.6668C19.8466 22.6668 20.5635 22.422 21.1572 21.9325C21.751 21.4429 22.0478 20.8543 22.0478 20.1668C22.0478 19.5002 21.7487 18.8946 21.1506 18.3502C20.5524 17.8057 19.8333 17.5335 18.9933 17.5335C18.1533 17.5335 17.4364 17.8057 16.8426 18.3502C16.2489 18.8946 15.952 19.5057 15.952 20.1835C15.952 20.8613 16.2511 21.4446 16.8493 21.9335C17.4475 22.4224 18.1666 22.6668 19.0066 22.6668ZM13.8541 10.8668H24.1458V7.66683C24.1458 6.46312 23.6459 5.43997 22.6463 4.5974C21.6466 3.7548 20.4327 3.3335 19.0046 3.3335C17.5765 3.3335 16.361 3.7548 15.3583 4.5974C14.3555 5.43997 13.8541 6.46312 13.8541 7.66683V10.8668Z" fill="#484747"/>
</svg>
